<svg id="Layer_1" data-name="Layer 1" xmlns="http://www.w3.org/2000/svg" viewBox="0 0 46 29"><path d="M60,17.08V17l-5.5,5h-.3l-1.91.21S27.17,25,27.17,25h-.1a2,2,0,0,0-1.7,1.5,1.9,1.9,0,0,0,.8,2.1l5.3,3.5-.8.7a7.64,7.64,0,0,0-4.9-1.9,7.69,7.69,0,0,0-7.4,7.6,7.5,7.5,0,1,0,15,0,7.14,7.14,0,0,0-1.3-4.1l1.2-1,5.2,3.4a2,2,0,0,0,1.1.3h.3l4.7-.7,4.9,7a2.65,2.65,0,0,0,2.3,1.3h.4a2.65,2.65,0,0,0,2.6-2.6l-1.3-7.2a2,2,0,0,0,.8-1.2l1.7-9.2a1.73,1.73,0,0,0-.1-1l4.7-4.4h3.8v-2ZM25.87,44a5.5,5.5,0,1,1,0-11,5.23,5.23,0,0,1,3.4,1.2l-2,1.7a2.5,2.5,0,0,0-1.4-.4,3,3,0,1,0,3,3,2.66,2.66,0,0,0-.3-1.2l2-1.6a5.38,5.38,0,0,1,.8,2.8A5.55,5.55,0,0,1,25.87,44Zm1-5.5a1,1,0,1,1-1-1A.94.94,0,0,1,26.87,38.48Zm.5-11.5,24.8-2.8-4.8,4.4-14,2.4Zm24.8,15.6h-.4a.55.55,0,0,1-.5-.3L46.87,36l4.8-.7,1.2,6.8A.67.67,0,0,1,52.17,42.58Zm.2-9.4-12.8,1.9-3.8-2.5,12.6-2.1,5.5-5.1Z" transform="translate(-18.37 -16.98)"/></svg>