<svg version="1.1" xmlns="http://www.w3.org/2000/svg" xmlns:xlink="http://www.w3.org/1999/xlink" x="0px" y="0px" width="187.2px"
height="75.2px" viewBox="0 0 187.2 75.2" style="overflow:visible;enable-background:new 0 0 187.2 75.2;" xml:space="preserve">
<defs>
</defs>
<path d="M130.1,71.8c-0.5-0.3-1-0.5-1.5-0.5c-0.5,0-1,0.2-1.4,0.6c-0.4,0.4-0.6,0.8-0.6,1.3c0,0.5,0.2,0.9,0.6,1.2
c0.4,0.3,1,0.5,1.5,0.5c0.6,0,1.1-0.2,1.5-0.5c0.4-0.4,0.6-0.8,0.6-1.3C130.9,72.5,130.6,72.1,130.1,71.8z M164.5,73.3
c-0.1,0-0.4,0.1-0.9,0.2c-0.4,0.1-0.8,0.2-1,0.2c-0.8,0-1.2-0.8-1.2-2.4l0-5.7h2.7c0.3,0,0.5-0.1,0.7-0.2c0.2-0.1,0.3-0.3,0.3-0.5
s-0.1-0.4-0.3-0.5c-0.2-0.1-0.4-0.2-0.7-0.2l-2.7,0c0-0.2,0-0.4,0-0.8c0-0.4,0-0.7,0-0.9c0-0.2,0-0.5,0-0.8c0-0.4-0.1-0.6-0.3-0.6
c-0.3,0-0.8,0.6-1.3,1.9c-0.2,0.5-0.4,0.8-0.4,1c-0.1,0.1-0.4,0.3-0.9,0.5c-0.2,0.1-0.4,0.2-0.5,0.3c-0.1,0.1-0.2,0.3-0.2,0.5
c0,0.2,0.1,0.3,0.2,0.3c0.1,0.1,0.3,0.1,0.6,0.1l0.7,0v6.3c0,1,0.2,1.8,0.7,2.3c0.4,0.6,1,0.9,1.8,0.9c0.8,0,1.5-0.1,2.2-0.4
c0.7-0.3,1.1-0.6,1.1-0.8C165,73.5,164.9,73.3,164.5,73.3z M156.1,72.5c-0.1,0-0.4,0.1-0.8,0.3c-0.7,0.5-1.5,0.7-2.3,0.7
c-1.2,0-2.2-0.4-2.9-1.2c-0.8-0.8-1.2-1.8-1.2-3.1h6.5c1,0,1.4-0.3,1.4-0.9c0-0.4,0-0.8-0.1-1.1c-0.2-0.7-0.5-1.3-1-1.8
c-0.1-0.1-0.1-0.1-0.2-0.2c-0.9-0.8-2-1.2-3.2-1.2c-1.6,0-2.9,0.5-4,1.6c-1,1.1-1.6,2.4-1.6,4.1c0,1.7,0.5,3,1.6,4.1
c1,1,2.4,1.5,4.1,1.5c0.5,0,1-0.1,1.7-0.2c0.6-0.2,1.2-0.4,1.8-0.8c0.5-0.4,0.8-0.7,0.8-1.1c0-0.2-0.1-0.3-0.2-0.4
C156.3,72.5,156.2,72.5,156.1,72.5z M150.1,66c0.6-0.6,1.4-0.9,2.2-0.9c0.8,0,1.5,0.3,1.9,0.8c0.4,0.5,0.7,1.2,0.7,2.1
c-0.9,0-2,0-3.1,0h-2.6C149.1,67.3,149.5,66.6,150.1,66z M145,73.4c-0.5,0-0.7-0.3-0.7-0.7v-4c0-1.6-0.3-2.8-0.9-3.6
c-0.6-0.8-1.6-1.2-3.1-1.2c-1.8,0-3.2,0.6-4.2,1.7c0-0.7-0.1-1.1-0.3-1.3c-0.2-0.2-0.6-0.3-1.3-0.3c-0.7,0-1.2,0.1-1.7,0.4
c-0.3,0.1-0.4,0.3-0.4,0.5c0,0.2,0,0.3,0.1,0.4c0.1,0.1,0.3,0.1,0.7,0.2c0.5,0.1,0.8,0.4,0.8,0.8v6.4c0,0.2-0.1,0.4-0.2,0.5
c-0.1,0.1-0.3,0.2-0.5,0.2c-0.2,0-0.3,0-0.5,0.1c-0.1,0.1-0.2,0.2-0.2,0.4c0,0.2,0.1,0.3,0.2,0.5c0.2,0.3,0.8,0.5,1.8,0.5l1,0
c0.6,0,1.1,0,1.4-0.1c0.5-0.1,0.7-0.3,0.7-0.8c0-0.4-0.2-0.5-0.7-0.6c-0.5,0-0.7-0.3-0.7-0.7v-3.2c0-1.4,0.2-2.5,0.7-3.2
c0.5-0.7,1.4-1,2.7-1c1.1,0,1.8,0.4,2.2,1.1c0.3,0.6,0.5,1.7,0.5,3v3.3c0,0.2-0.1,0.4-0.2,0.5c-0.2,0.1-0.3,0.2-0.5,0.2
c-0.2,0-0.4,0-0.5,0.1c-0.2,0.1-0.2,0.2-0.2,0.4c0,0.2,0.1,0.3,0.2,0.5c0.2,0.3,0.8,0.5,1.8,0.5l1,0c0.6,0,1.1,0,1.4-0.1
c0.5-0.1,0.7-0.4,0.7-0.8C145.7,73.7,145.5,73.5,145,73.4z M180.2,67.6c-3.5-0.5-7-0.8-10.6-1.1c-1.5-0.1-2.8,1.1-2.8,2.6
c0,1.4,1.2,2.6,2.6,2.6c0.1,0,0.1,0,0.2,0c3.5-0.2,7.1-0.6,10.6-1.1c0.7-0.1,1.3-0.7,1.3-1.5C181.6,68.4,180.9,67.7,180.2,67.6z
M121.9,66.5c-3.5,0.3-7.1,0.6-10.6,1.1c-0.7,0.1-1.3,0.7-1.3,1.5c0,0.8,0.6,1.4,1.4,1.5c3.5,0.5,7,0.8,10.5,1.1
c1.5,0.1,2.8-1.1,2.8-2.6S123.4,66.4,121.9,66.5z M75.9,67.6c-5.8-0.8-11.5-1.2-17.2-1.5c-5.8-0.3-11.5-0.4-17.2-0.4
c-5.8,0-11.5,0.1-17.2,0.4c-5.8,0.3-11.5,0.7-17.2,1.5c-0.7,0.1-1.2,0.6-1.3,1.3c-0.1,0.8,0.5,1.6,1.3,1.7
c5.8,0.8,11.5,1.2,17.2,1.5c5.7,0.3,11.5,0.4,17.2,0.4c5.8,0,11.5-0.1,17.2-0.4c5.7-0.3,11.5-0.7,17.2-1.5c0.7-0.1,1.2-0.6,1.3-1.3
C77.3,68.5,76.7,67.8,75.9,67.6z M136.9,5.5c-1.3-0.8-2.6-1.2-3.9-1.2s-2.6,0.5-3.7,1.5c-1.1,1-1.7,2.1-1.7,3.3
c0,1.3,0.6,2.3,1.7,3.2c1.1,0.9,2.5,1.3,4,1.3s2.9-0.5,3.9-1.4c1.1-0.9,1.6-2.1,1.6-3.4C138.8,7.4,138.2,6.3,136.9,5.5z M109.1,29.2
c1.7-0.3,4.8,1.2,6.2,1.2c2.4-0.2,10.3,4,10.6,0.5c-0.5-2.1-1.6-4-3.6-4.9c-4-3.3-8.8-0.2-13.2,0.2c-1.1,0.2-2-0.8-1.3-1.9
c2.3-3.6-7-6.4-7.5-2c-0.1,1.2-1.2,2.4-2.3,1.6c-3.9-3.5,0.1-10-9.4-8.4c-1.9,0.2-6.4,3.2-4.3,5.1c3.1,0.6,5.2,1.5,7.8,2.9
c1,0.3,5.5,3.3,2.6,3.5c-3.2-1.1-5.9-3.2-9.1-4.3c-2.6-1.1-4,2.5-6,3.6c-0.8,0.6-0.3,1.8,0.7,1.8c3.8-0.2,7.3,0.6,11,1.5
c1.3,0.3,0.9,2.3-0.4,2c-1.1-0.2-2.2-0.7-3.2-0.8c-2.2-0.4-4.3-1.5-6.6-0.9c-3,1.2-8.1-1.1-8.9,3c-0.8,2,13.9,2.2,15.9,2.7
c1.6-0.3,5.6,0.1,3.4,2.1c-6,0.6-13.1-1.2-18.4,2.5c-0.8,0.7-0.1,2.1-0.1,3c1.8,2.7,7.9-1.9,10.4-2.4c1-0.3,5.4-0.2,3.7,1.5
c-4.5,1.5-13.4,1.1-14.1,6.7c0.4,3.4,12.8-4.2,15.1-3.8c1.2-0.4,2.3,1.3,0.7,1.6c-4.4,2.1-14.5,1.5-15.2,7.7
c5.3,0.9,9.8-3.7,14.8-3.5c0.8,1.6-2.4,1.4-3.2,1.8c-2.2,1.2-4.5,1.9-6.7,2.8c-2.3,1.3,3.9,4.9,2.5,7.5c0,0,0,0,0,0
c5.8-2,11.3,8.1,12.2-6.2c0-0.3,0.4-0.9,1-0.6c1.2,0.9,0.2,2.9,0.5,4.3c0.1,1.4,0.2,5.1,2.2,4.5c0.9-0.8,3.1-0.3,3.4-1.7
c1.8-5.4-3.6-9-4.7-13.7c1.2-2.1,4.2,2.5,4.7,3.6c1.1,3.2,0.9,6.9,2.7,10c0.3,0.6,1.1,0.8,1.6,0.3c1-1.5,4.2-0.7,5-2.5
c0.5-4.3-4.7-7.2-6.7-10.7c-1.9-2.2-7.5-9.9-0.3-6.2c5.6,2.1,3,9.9,8.4,13.7c0.7,0.7,1.5,2.1,2.5,1.1c0.6-0.7,1.8-0.7,2.3-1.5
c0.4-0.8,1.5-1.8,1.5-2.4c-4-5.1-9.9-9-13.1-14.7c0-2.5,2.7-0.5,3.2,0.6c2.3,2.7,14.9,13.7,14.9,5.5c-2.6-1.6-7.4-5.8-9.1-7.6
c-2.1-1.5-4.9-2.1-6.7-3.9c-0.5-1.3,1.8-0.9,2.1-0.4c4.7,2.9,9.4,7.8,14.2,10.8c2.5,0.9,2.2-2.9,1.9-4.8c-0.1-2-0.9-3.2-3-3.6
c-3.2-1.8-6.9-3.6-10.4-4.8C110.2,31.9,106.6,30.5,109.1,29.2z M94,21.9c-0.3,0.2-1.8-0.9-2-1c-2-1.1-1.8-1.1-3.4-1.6
c-0.3-0.1-1.1-0.1-1.1-0.4c0-0.7,1-0.8,1.4-0.9c0,0,0.1,0,0.1,0c2-0.3,2.9-0.2,3.4-0.1c0.5,0.2,0.8,0,1.2,1.9
C93.7,20.2,94.5,21.4,94,21.9z M110.1,50.9c1.6,1.5,4.1,3,4.4,4.5c0,0.3-0.4,0.5-0.5,0.8c-0.1,0-0.2,0.1-0.3,0.1
c-0.2,0.1-0.4,0.4-0.7,0.3c-0.1,0-0.2-0.2-0.3-0.3c-0.1-0.1-0.2-0.1-0.3-0.2c-1.9-1.4-3.2-5.9-3.2-6.1
C109.6,49.8,109.8,50.6,110.1,50.9z M100.9,26c0.6-0.5,2.1-2.8,2.4-1.1C103.1,29.1,99.9,27.7,100.9,26z M97.7,27.5
c0.8,0,1.9,0,2.4,0.7C100.1,30.7,95.2,28.6,97.7,27.5z M91.3,55.2c-0.4,0.5-0.6,1.1-0.7,1.6c0,0,0,0,0,0.1c-0.2,4.1-0.9,5.3-1.1,5.6
c-0.1,0-0.3-0.1-0.8-0.2c-0.4-0.1-0.8-0.3-1.3-0.5c-0.6-0.2-1.1-0.4-1.8-0.7c0,0,0,0,0,0c-1.6-0.5-3-1.5-4-2.8
c-0.2-0.3-0.4-0.6-0.6-0.8c-0.1-0.1-0.1-0.1-0.2-0.2c1.6-0.6,3.3-1.3,5-2.2c0.1,0,0.4-0.1,0.6-0.1C87.5,54.9,92.6,52.2,91.3,55.2z
M94,42.2c-0.8,0.8-4.1,0-2.6-1.4C92.5,40,95,40.9,94,42.2z M95.1,37.4c-3.9-0.9-1.7-3.3,1.3-2.3C98.3,35.8,96.6,37.9,95.1,37.4z
M96.7,33.3c-1,0-2.3-1.4-1.3-2.1C98.2,29.6,100.5,33.1,96.7,33.3z M100.1,42.3c-1.1,0.1-1.8-1-2.2-1.8
C97.6,37.5,102.7,41.6,100.1,42.3z M102.8,38.4c-1.7,0.6-4.2-2.4-2.5-3.6C101.3,33.9,104.5,38,102.8,38.4z M102.6,33
c-1.5-0.6-0.8-2.9,0.8-2C104.7,31.6,104.1,33.8,102.6,33z M103.3,28.1c0.7-0.1,1.3,0.4,1.9,0.7C106.8,31.3,101.4,29.2,103.3,28.1z
M115.9,36.7c0.5-0.4,3,1.2,4.8,2.3c0.1,0.1,0.3,0.2,0.4,0.2c0.1,0,0.3,0.1,0.4,0.1c0.2,0,0.3,0.1,0.4,0.1c0.3,0.1,0.5,0.2,0.5,1.2
c0,0.1,0,0.2,0,0.3c0.1,0.5,0.5,1.3,0.1,1.3c-2-0.2-3.7-2.8-5.5-4.3C116.6,37.3,115.4,37,115.9,36.7z M186.6,55.3
c-0.2-0.2-0.4-0.3-0.6-0.3c-0.2-0.1-0.4-0.2-0.8-0.3c-0.4-0.1-0.8-0.3-1.4-0.5c-0.5-0.2-1.1-0.7-1.8-1.6c-0.6-0.9-1-2.8-1-5.8V3
c0-1-0.5-1.9-1.4-2.5c-0.5-0.3-2-0.5-4.7-0.5c-2.5,0-4.6,0.6-6.1,1.8c-0.8,0.7-1.2,1.3-1.2,1.9c0,0.6,0.1,1,0.3,1.2
c0.1,0.1,0.2,0.1,0.3,0.2c0.1,0.1,0.2,0.1,0.4,0.1c0.2,0,0.4,0.1,0.5,0.1c0.1,0,0.3,0,0.6,0.1c0.3,0,0.5,0,0.7,0.1
c1.9,0.2,2.9,1.5,2.9,3.9v13.4c-1.3-0.6-3-1.2-5.2-1.8c-2.2-0.6-4.1-0.9-5.9-0.9c-6.1,0-11,1.9-14.9,5.7c-3.9,3.8-5.8,8.6-5.8,14.5
c0,5.9,1.7,10.6,5.2,14.3c3.2,3.4,7.3,5.2,12.3,5.5c0.5-0.6,1.1-1.1,2-1.1c0.5,0,1.3,0.2,1.8,1c5.5-0.4,9.2-2.3,11.1-5.7
c0.7,2,1.4,3.4,2.3,4.1c0.9,0.8,2.3,1.1,4.3,1.1c2,0,3.5-0.3,4.7-0.8c1.2-0.5,1.8-1.3,1.8-2.5C187.2,55.9,187,55.5,186.6,55.3z
M173.4,45.1c0,3.7-0.9,6.3-2.5,7.9c-1.7,1.6-4.5,2.4-8.3,2.4s-6.9-1.5-9.3-4.6c-2.4-3.1-3.6-6.8-3.6-11.2c0-5.7,1.8-10,5.3-12.9
c1.8-1.5,4-2.2,6.6-2.2s4.9,0.4,7,1.3c2.1,0.9,3.7,2,4.8,3.5V45.1z M136.9,5.5c-1.3-0.8-2.6-1.2-3.9-1.2s-2.6,0.5-3.7,1.5
c-1.1,1-1.7,2.1-1.7,3.3c0,1.3,0.6,2.3,1.7,3.2c1.1,0.9,2.5,1.3,4,1.3s2.9-0.5,3.9-1.4c1.1-0.9,1.6-2.1,1.6-3.4
C138.8,7.4,138.2,6.3,136.9,5.5z M140.8,54.2c-1.7-0.1-2.6-0.9-2.6-2.5v-28c0-1-0.3-1.7-0.8-2.1c-0.3-0.2-0.6-0.4-1.1-0.6
c-0.4-0.2-1.8-0.3-4.1-0.3c-2.5,0-4.6,0.6-6.1,1.8c-0.8,0.7-1.2,1.3-1.2,1.9c0,0.6,0.1,1,0.3,1.1c0.1,0.1,0.2,0.1,0.3,0.2
c0.1,0.1,0.2,0.1,0.4,0.1c0.2,0,0.4,0.1,0.5,0.1c0.1,0,0.3,0,0.6,0.1c0.3,0,0.5,0,0.7,0.1c1.9,0.2,2.9,1.5,2.9,3.9v21.5
c0,0.9-0.3,1.5-0.8,1.9c-0.5,0.4-1.1,0.6-1.8,0.6c-0.6,0-1.2,0.2-1.8,0.4c-0.5,0.3-0.8,0.7-0.8,1.4s0.2,1.3,0.6,1.7
c0.8,1.1,3,1.6,6.5,1.6l3.4,0c2.1,0,3.8-0.1,5.1-0.4c1.6-0.3,2.4-1.2,2.4-2.7C143.4,54.9,142.5,54.3,140.8,54.2z M71.8,22
c-1.4-0.9-3.2-1.4-5.4-1.4c-2.2,0-4.4,0.7-6.5,2c-2.1,1.3-3.6,3.1-4.5,5.4c0-3-0.3-5-1-5.8c-0.7-0.8-2.2-1.3-4.6-1.3
c-5.7,0-8.6,1.1-8.6,3.2c0,0.5,0.3,0.8,0.8,1.1s1.2,0.5,2,0.7c0.8,0.2,1.4,0.4,1.8,0.6c0.4,0.2,0.9,0.5,1.4,1.1s0.9,2,0.9,4.4v19.8
c0,0.9-0.3,1.5-0.8,1.9c-0.5,0.4-1.1,0.6-1.8,0.6c-0.7,0-1.2,0.2-1.8,0.4C43.2,54.9,43,55.4,43,56s0.2,1.3,0.6,1.7
c0.8,1.1,3,1.6,6.5,1.6l3.4,0c2.1,0,3.8-0.1,5-0.4c1.6-0.3,2.4-1.2,2.4-2.7c0-1.3-0.9-2-2.6-2.1s-2.6-0.9-2.6-2.5v-11
c0-9.6,2.1-14.4,6.2-14.4c0.4,0,1,0.1,1.7,0.2c0.3,1.2,0.9,2.1,1.9,2.8c1,0.7,2.1,1.1,3.5,1.1c1.4,0,2.5-0.4,3.4-1.3
c0.9-0.9,1.4-2,1.4-3.5C74,24.1,73.2,22.9,71.8,22z M36.9,53.6c-1-0.3-1.6-0.5-1.8-0.7c-0.7-0.7-1.1-2.5-1.1-5.4l0-11.8
c0-5.5-1.2-9.4-3.7-11.8c-2.4-2.4-6.4-3.6-11.8-3.6c-3.2,0-6.2,0.4-9,1.3c-1.5,0.5-2.9,1.1-4,1.8c-1.2,0.7-2.1,1.6-2.8,2.8
s-1.1,2.3-1.1,3.6s0.6,2.3,1.9,3.1C4.9,33.6,6,34,7,34c1,0,2.1-0.1,3.2-0.2l0-0.9c0-3.1,0.7-5.3,2.1-6.7c1.4-1.4,3.4-2.1,6.2-2.1
s4.7,0.7,5.9,2c1.4,1.6,2,4.9,2,9.9c-1,0.5-2.3,0.9-3.9,1.1c-1.7,0.2-2.6,0.3-2.7,0.3c-0.1,0-0.8,0.1-2.4,0.3
c-1.5,0.2-3.4,0.5-5.7,0.9c-1.5,0.3-2.8,0.6-3.7,1c-1,0.4-2,0.9-3.1,1.5c-1.1,0.6-2,1.3-2.6,2.1c-0.6,0.8-1.2,1.7-1.6,2.9
C0.2,47.1,0,48.6,0,50.5c0,1.9,0.6,3.6,1.8,5.2c1.2,1.6,2.8,2.8,4.7,3.5c1.9,0.7,4.3,1.1,7.1,1.1c2.8,0,5.4-0.7,7.9-2
c2.5-1.3,4.3-3.1,5.5-5.2c0.1,2.5,0.4,4.3,1.1,5.2c0.6,1,2.1,1.4,4.2,1.4c5.7,0,8.6-1.4,8.6-4.2C41,55.1,39.6,54.4,36.9,53.6z
M25.3,49.5c-1.2,4.4-4.2,6.6-8.8,6.6c-5.3,0-8-2.3-8-6.9c0-2.9,1-4.9,3-6c0.9-0.5,2-0.9,3.3-1.3c1.3-0.3,3.1-0.6,5.4-0.9
c2.3-0.2,4.3-0.7,6.1-1.4C26.4,43.7,26,47,25.3,49.5z"/>
</svg>